<svg data-v-423bf9ae="" xmlns="http://www.w3.org/2000/svg" viewBox="0 0 60.00687842768619 60" class="icon"><!----><!----><!----><!----><g data-v-423bf9ae="" id="6aea2f2b-6728-49bf-a4c7-d22f4502910c" transform="matrix(0.6252214103225388,0,0,0.6252214103225388,-1.2566926996611443,-1.2623260559264793)" stroke="none" fill="black"><path d="M97.987 50.518l-.006-.946c-.414-7.168-5.727-11.621-13.874-11.621-2.692 0-5.575.499-8.456 1.456 6.134-3.024 10.517-7.633 11.697-12.454.887-3.654-.074-7.308-2.846-10.435l-.955-.939c-2.268-1.918-4.899-2.931-7.63-2.931-5.854 0-11.745 4.675-15.484 12.187 2.293-6.538 2.171-12.828-.407-17.171-1.976-3.326-5.168-5.271-9.515-5.645l-1.04.012c-4.195.362-7.475 2.337-9.484 5.715-2.52 4.231-2.696 10.311-.572 16.649-5.222-10.6-15.189-15.205-22.91-8.639l-.937.955c-2.599 3.073-3.508 6.812-2.557 10.527 1.234 4.821 5.399 9.241 11.317 12.165-2.87-.951-5.724-1.45-8.381-1.45-7.976 0-13.314 4.419-13.937 11.8l.012 1.039c.617 6.959 5.924 11.275 13.852 11.275 2.851 0 5.918-.564 8.983-1.646-6.493 3.277-11.022 8.377-12.02 13.697-.729 3.891.502 7.598 3.654 10.607 2.286 1.861 4.921 2.846 7.62 2.846 5.907 0 11.716-4.621 15.284-11.91-2.152 6.463-1.936 12.621.687 16.877 2.016 3.277 5.381 5.211 9.654 5.447h.863l.092-.006c3.976-.23 7.253-2.133 9.235-5.355 2.681-4.365 2.845-10.736.535-17.369 5.495 11.059 15.77 15.66 23.272 9.004l.638-.646c2.688-3.031 3.647-6.596 2.791-10.316-1.155-4.979-5.539-9.66-11.952-12.846 3.052 1.064 6.109 1.617 8.966 1.617 7.98-.004 13.397-4.464 13.811-11.55zM19.044 25.694c-.456-1.784-.036-3.408 1.11-4.775l.568-.589c1.158-.982 2.337-1.457 3.605-1.457 3.791 0 8.089 4.299 10.479 10.515 1.471 3.587 3.754 7.824 6.192 11.615-3.806-2.441-8.056-4.733-11.676-6.21-5.356-2.062-9.391-5.633-10.278-9.099zm5.605 28.12c-3.037 1.326-6.07 2.025-8.773 2.025-3.264 0-7.241-.973-7.638-5.322l-.012-.5c.416-4.827 4.429-5.842 7.724-5.842 2.675 0 5.685.696 8.718 2.016 3.387 1.453 8.126 2.812 12.648 3.839-4.441.945-9.156 2.279-12.667 3.784zm10.132 16.86c-2.411 6.287-6.797 10.67-10.667 10.67-1.286 0-2.492-.475-3.498-1.277-1.459-1.404-2-2.973-1.657-4.803.699-3.727 4.894-7.781 10.308-10.031 3.617-1.32 7.937-3.672 11.792-6.141-2.448 3.836-4.764 8.056-6.278 11.582zm10.554-59.747c.97-1.626 2.499-2.507 4.405-2.684l.499-.012c2.049.183 3.502 1.034 4.432 2.608 1.812 3.046 1.478 8.472-.862 13.834-1.502 3.505-2.834 8.208-3.779 12.631-1.021-4.523-2.377-9.22-3.845-12.646-2.355-5.396-2.677-10.658-.85-13.731zm9.287 78.436c-.913 1.482-2.293 2.268-4.222 2.395l-.484.006c-2.091-.121-3.572-.938-4.529-2.486-1.876-3.047-1.562-8.518.802-13.947 1.486-3.465 2.83-8.092 3.836-12.529.985 4.572 2.359 9.205 3.788 12.541 2.377 5.454 2.694 10.956.809 14.02zm10.572-59.975c2.535-6.192 6.949-10.515 10.724-10.515 1.271 0 2.45.475 3.424 1.283l.632.626c1.301 1.474 1.738 3.009 1.325 4.694-.845 3.453-5.112 7.198-10.725 9.362-3.46 1.477-7.654 3.775-11.472 6.213 2.462-3.84 4.803-8.125 6.092-11.663zm15.903 45.317c.401 1.713-.055 3.275-1.252 4.639l-.371.383c-4.614 4.035-10.87-.762-14.257-9.047-1.307-3.43-3.665-7.697-6.17-11.623 3.915 2.492 8.165 4.832 11.563 6.133 5.564 2.285 9.679 6.017 10.487 9.515zM62.804 50.03c4.433-1.006 9.059-2.353 12.536-3.845 3.021-1.313 6.05-2.01 8.767-2.01 3.344 0 7.387 1 7.654 5.575l.006.581c-.267 4.553-4.274 5.508-7.588 5.508-2.741 0-5.799-.699-8.852-2.031-3.313-1.425-7.944-2.796-12.523-3.778z"></path></g><!----></svg>